<svg width="1920" height="1200" viewBox="0 0 1920 1200" fill="none" xmlns="http://www.w3.org/2000/svg">
<g opacity="0.9">
<rect width="1920" height="1033.09" fill="url(#paint0_linear_247_1803)"/>
<mask id="mask0_247_1803" style="mask-type:luminance" maskUnits="userSpaceOnUse" x="0" y="0" width="1920" height="1200">
<rect width="1920" height="1200" fill="white"/>
</mask>
<g mask="url(#mask0_247_1803)">
<path fill-rule="evenodd" clip-rule="evenodd" d="M1644.06 665.626C1644.86 665.626 1645.65 665.224 1646.22 664.519C1646.79 663.816 1647.11 662.844 1647.11 661.848C1647.11 660.853 1646.79 659.88 1646.22 659.178C1645.65 658.473 1644.86 658.071 1644.06 658.071C1643.25 658.071 1642.46 658.473 1641.89 659.178C1641.33 659.88 1641 660.853 1641 661.848C1641 662.844 1641.33 663.816 1641.89 664.519C1642.46 665.224 1643.25 665.626 1644.06 665.626Z" fill="white"/>
<path fill-rule="evenodd" clip-rule="evenodd" d="M1677.67 665.626H1677.68C1679.37 665.626 1680.73 663.934 1680.73 661.848C1680.73 659.763 1679.37 658.071 1677.68 658.071H1677.67C1675.98 658.071 1674.62 659.763 1674.62 661.848C1674.62 663.934 1675.98 665.626 1677.67 665.626Z" fill="white"/>
<path fill-rule="evenodd" clip-rule="evenodd" d="M1661.37 665.626H1661.38C1663.06 665.626 1664.43 663.934 1664.43 661.848C1664.43 659.763 1663.06 658.071 1661.38 658.071H1661.37C1659.68 658.071 1658.32 659.763 1658.32 661.848C1658.32 663.934 1659.68 665.626 1661.37 665.626Z" fill="white"/>
<path fill-rule="evenodd" clip-rule="evenodd" d="M1694.99 665.626C1695.8 665.626 1696.59 665.224 1697.15 664.519C1697.72 663.816 1698.05 662.844 1698.05 661.848C1698.05 660.853 1697.72 659.88 1697.15 659.178C1696.59 658.473 1695.8 658.071 1694.99 658.071C1694.19 658.071 1693.4 658.473 1692.83 659.178C1692.26 659.88 1691.94 660.853 1691.94 661.848C1691.94 662.844 1692.26 663.816 1692.83 664.519C1693.4 665.224 1694.19 665.626 1694.99 665.626Z" fill="white"/>
<path fill-rule="evenodd" clip-rule="evenodd" d="M1712.31 665.626C1713.12 665.626 1713.9 665.224 1714.47 664.519C1715.04 663.816 1715.37 662.844 1715.37 661.848C1715.37 660.853 1715.04 659.88 1714.47 659.178C1713.9 658.473 1713.12 658.071 1712.31 658.071C1711.51 658.071 1710.72 658.473 1710.15 659.178C1709.58 659.88 1709.25 660.853 1709.25 661.848C1709.25 662.844 1709.58 663.816 1710.15 664.519C1710.72 665.224 1711.51 665.626 1712.31 665.626Z" fill="white"/>
<path fill-rule="evenodd" clip-rule="evenodd" d="M1745.92 665.626H1745.94C1747.62 665.626 1748.99 663.934 1748.99 661.848C1748.99 659.763 1747.62 658.071 1745.94 658.071H1745.92C1744.24 658.071 1742.87 659.763 1742.87 661.848C1742.87 663.934 1744.24 665.626 1745.92 665.626Z" fill="white"/>
<path fill-rule="evenodd" clip-rule="evenodd" d="M1728.6 665.626H1728.62C1730.3 665.626 1731.67 663.934 1731.67 661.848C1731.67 659.763 1730.3 658.071 1728.62 658.071H1728.6C1726.92 658.071 1725.56 659.763 1725.56 661.848C1725.56 663.934 1726.92 665.626 1728.6 665.626Z" fill="white"/>
<mask id="mask1_247_1803" style="mask-type:luminance" maskUnits="userSpaceOnUse" x="1759" y="657" width="7" height="9">
<path fill-rule="evenodd" clip-rule="evenodd" d="M1759.48 657.801H1766V665.86H1759.48V657.801Z" fill="white"/>
</mask>
<g mask="url(#mask1_247_1803)">
<path fill-rule="evenodd" clip-rule="evenodd" d="M1762.74 665.86C1763.6 665.86 1764.44 665.431 1765.05 664.68C1765.65 663.93 1766 662.893 1766 661.831C1766 660.769 1765.65 659.731 1765.05 658.982C1764.44 658.231 1763.6 657.801 1762.74 657.801C1761.88 657.801 1761.04 658.231 1760.43 658.982C1759.83 659.731 1759.48 660.769 1759.48 661.831C1759.48 662.893 1759.83 663.93 1760.43 664.68C1761.04 665.431 1761.88 665.86 1762.74 665.86Z" fill="white"/>
</g>
<path fill-rule="evenodd" clip-rule="evenodd" d="M1644.06 649.253C1644.86 649.253 1645.65 648.851 1646.22 648.146C1646.79 647.443 1647.11 646.469 1647.11 645.475C1647.11 644.48 1646.79 643.507 1646.22 642.803C1645.65 642.1 1644.86 641.698 1644.06 641.698C1643.25 641.698 1642.46 642.1 1641.89 642.803C1641.33 643.507 1641 644.48 1641 645.475C1641 646.469 1641.33 647.443 1641.89 648.146C1642.46 648.851 1643.25 649.253 1644.06 649.253Z" fill="white"/>
<path fill-rule="evenodd" clip-rule="evenodd" d="M1677.67 649.253H1677.68C1679.37 649.253 1680.73 647.56 1680.73 645.475C1680.73 643.39 1679.37 641.698 1677.68 641.698H1677.67C1675.98 641.698 1674.62 643.39 1674.62 645.475C1674.62 647.56 1675.98 649.253 1677.67 649.253Z" fill="white"/>
<path fill-rule="evenodd" clip-rule="evenodd" d="M1661.37 649.253H1661.38C1663.06 649.253 1664.43 647.56 1664.43 645.475C1664.43 643.39 1663.06 641.698 1661.38 641.698H1661.37C1659.68 641.698 1658.32 643.39 1658.32 645.475C1658.32 647.56 1659.68 649.253 1661.37 649.253Z" fill="white"/>
<path fill-rule="evenodd" clip-rule="evenodd" d="M1694.99 649.253C1695.8 649.253 1696.59 648.851 1697.15 648.146C1697.72 647.443 1698.05 646.469 1698.05 645.475C1698.05 644.48 1697.72 643.507 1697.15 642.803C1696.59 642.1 1695.8 641.698 1694.99 641.698C1694.19 641.698 1693.4 642.1 1692.83 642.803C1692.26 643.507 1691.94 644.48 1691.94 645.475C1691.94 646.469 1692.26 647.443 1692.83 648.146C1693.4 648.851 1694.19 649.253 1694.99 649.253Z" fill="white"/>
<path fill-rule="evenodd" clip-rule="evenodd" d="M1712.31 649.253C1713.12 649.253 1713.9 648.851 1714.47 648.146C1715.04 647.443 1715.37 646.469 1715.37 645.475C1715.37 644.48 1715.04 643.507 1714.47 642.803C1713.9 642.1 1713.12 641.698 1712.31 641.698C1711.51 641.698 1710.72 642.1 1710.15 642.803C1709.58 643.507 1709.25 644.48 1709.25 645.475C1709.25 646.469 1709.58 647.443 1710.15 648.146C1710.72 648.851 1711.51 649.253 1712.31 649.253Z" fill="white"/>
<path fill-rule="evenodd" clip-rule="evenodd" d="M1745.92 649.253H1745.94C1747.62 649.253 1748.99 647.56 1748.99 645.475C1748.99 643.39 1747.62 641.698 1745.94 641.698H1745.92C1744.24 641.698 1742.87 643.39 1742.87 645.475C1742.87 647.56 1744.24 649.253 1745.92 649.253Z" fill="white"/>
<path fill-rule="evenodd" clip-rule="evenodd" d="M1728.6 649.253H1728.62C1730.3 649.253 1731.67 647.56 1731.67 645.475C1731.67 643.39 1730.3 641.698 1728.62 641.698H1728.6C1726.92 641.698 1725.56 643.39 1725.56 645.475C1725.56 647.56 1726.92 649.253 1728.6 649.253Z" fill="white"/>
<mask id="mask2_247_1803" style="mask-type:luminance" maskUnits="userSpaceOnUse" x="1759" y="641" width="7" height="9">
<path fill-rule="evenodd" clip-rule="evenodd" d="M1759.48 641H1766V649.059H1759.48V641Z" fill="white"/>
</mask>
<g mask="url(#mask2_247_1803)">
<path fill-rule="evenodd" clip-rule="evenodd" d="M1762.74 649.059C1763.6 649.059 1764.44 648.63 1765.04 647.878C1765.65 647.129 1766 646.089 1766 645.029C1766 643.968 1765.65 642.93 1765.04 642.179C1764.44 641.429 1763.6 641 1762.74 641C1761.88 641 1761.04 641.429 1760.43 642.179C1759.83 642.93 1759.48 643.968 1759.48 645.029C1759.48 646.089 1759.83 647.129 1760.43 647.878C1761.04 648.63 1761.88 649.059 1762.74 649.059Z" fill="white"/>
</g>
<path fill-rule="evenodd" clip-rule="evenodd" d="M1644.06 681.999C1644.86 681.999 1645.65 681.597 1646.22 680.892C1646.79 680.19 1647.11 679.217 1647.11 678.222C1647.11 677.228 1646.79 676.254 1646.22 675.551C1645.65 674.846 1644.86 674.444 1644.06 674.444C1643.25 674.444 1642.46 674.846 1641.89 675.551C1641.33 676.254 1641 677.228 1641 678.222C1641 679.217 1641.33 680.19 1641.89 680.892C1642.46 681.597 1643.25 681.999 1644.06 681.999Z" fill="white"/>
<path fill-rule="evenodd" clip-rule="evenodd" d="M1677.67 681.999H1677.68C1679.37 681.999 1680.73 680.307 1680.73 678.222C1680.73 676.136 1679.37 674.444 1677.68 674.444H1677.67C1675.98 674.444 1674.62 676.136 1674.62 678.222C1674.62 680.307 1675.98 681.999 1677.67 681.999Z" fill="white"/>
<path fill-rule="evenodd" clip-rule="evenodd" d="M1661.37 681.999H1661.38C1663.06 681.999 1664.43 680.307 1664.43 678.222C1664.43 676.136 1663.06 674.444 1661.38 674.444H1661.37C1659.68 674.444 1658.32 676.136 1658.32 678.222C1658.32 680.307 1659.68 681.999 1661.37 681.999Z" fill="white"/>
<path fill-rule="evenodd" clip-rule="evenodd" d="M1694.99 681.999C1695.8 681.999 1696.59 681.597 1697.15 680.892C1697.72 680.19 1698.05 679.217 1698.05 678.222C1698.05 677.228 1697.72 676.254 1697.15 675.551C1696.59 674.846 1695.8 674.444 1694.99 674.444C1694.19 674.444 1693.4 674.846 1692.83 675.551C1692.26 676.254 1691.94 677.228 1691.94 678.222C1691.94 679.217 1692.26 680.19 1692.83 680.892C1693.4 681.597 1694.19 681.999 1694.99 681.999Z" fill="white"/>
<path fill-rule="evenodd" clip-rule="evenodd" d="M1712.31 681.999C1713.12 681.999 1713.9 681.597 1714.47 680.892C1715.04 680.19 1715.37 679.217 1715.37 678.222C1715.37 677.228 1715.04 676.254 1714.47 675.551C1713.9 674.846 1713.12 674.444 1712.31 674.444C1711.51 674.444 1710.72 674.846 1710.15 675.551C1709.58 676.254 1709.25 677.228 1709.25 678.222C1709.25 679.217 1709.58 680.19 1710.15 680.892C1710.72 681.597 1711.51 681.999 1712.31 681.999Z" fill="white"/>
<path fill-rule="evenodd" clip-rule="evenodd" d="M1745.92 681.999H1745.94C1747.62 681.999 1748.99 680.307 1748.99 678.222C1748.99 676.136 1747.62 674.444 1745.94 674.444H1745.92C1744.24 674.444 1742.87 676.136 1742.87 678.222C1742.87 680.307 1744.24 681.999 1745.92 681.999Z" fill="white"/>
<path fill-rule="evenodd" clip-rule="evenodd" d="M1728.6 681.999H1728.62C1730.3 681.999 1731.67 680.307 1731.67 678.222C1731.67 676.136 1730.3 674.444 1728.62 674.444H1728.6C1726.92 674.444 1725.56 676.136 1725.56 678.222C1725.56 680.307 1726.92 681.999 1728.6 681.999Z" fill="white"/>
<mask id="mask3_247_1803" style="mask-type:luminance" maskUnits="userSpaceOnUse" x="1759" y="674" width="7" height="9">
<path fill-rule="evenodd" clip-rule="evenodd" d="M1759.48 674.609H1766V682.668H1759.48V674.609Z" fill="white"/>
</mask>
<g mask="url(#mask3_247_1803)">
<path fill-rule="evenodd" clip-rule="evenodd" d="M1762.74 682.668C1763.6 682.668 1764.44 682.239 1765.05 681.487C1765.65 680.738 1766 679.7 1766 678.638C1766 677.579 1765.65 676.539 1765.05 675.79C1764.44 675.038 1763.6 674.609 1762.74 674.609C1761.88 674.609 1761.04 675.038 1760.43 675.79C1759.83 676.539 1759.48 677.579 1759.48 678.638C1759.48 679.7 1759.83 680.738 1760.43 681.487C1761.04 682.239 1761.88 682.668 1762.74 682.668Z" fill="white"/>
</g>
<path fill-rule="evenodd" clip-rule="evenodd" d="M1644.06 698.366C1644.86 698.366 1645.65 697.963 1646.22 697.259C1646.79 696.556 1647.11 695.584 1647.11 694.588C1647.11 693.593 1646.79 692.62 1646.22 691.917C1645.65 691.213 1644.86 690.811 1644.06 690.811C1643.25 690.811 1642.46 691.213 1641.89 691.917C1641.33 692.62 1641 693.593 1641 694.588C1641 695.584 1641.33 696.556 1641.89 697.259C1642.46 697.963 1643.25 698.366 1644.06 698.366Z" fill="white"/>
<path fill-rule="evenodd" clip-rule="evenodd" d="M1677.67 698.366H1677.68C1679.37 698.366 1680.73 696.673 1680.73 694.588C1680.73 692.503 1679.37 690.811 1677.68 690.811H1677.67C1675.98 690.811 1674.62 692.503 1674.62 694.588C1674.62 696.673 1675.98 698.366 1677.67 698.366Z" fill="white"/>
<path fill-rule="evenodd" clip-rule="evenodd" d="M1661.37 698.366H1661.38C1663.06 698.366 1664.43 696.673 1664.43 694.588C1664.43 692.503 1663.06 690.811 1661.38 690.811H1661.37C1659.68 690.811 1658.32 692.503 1658.32 694.588C1658.32 696.673 1659.68 698.366 1661.37 698.366Z" fill="white"/>
<path fill-rule="evenodd" clip-rule="evenodd" d="M1694.99 698.366C1695.8 698.366 1696.59 697.963 1697.15 697.259C1697.72 696.556 1698.05 695.584 1698.05 694.588C1698.05 693.593 1697.72 692.62 1697.15 691.917C1696.59 691.213 1695.8 690.811 1694.99 690.811C1694.19 690.811 1693.4 691.213 1692.83 691.917C1692.26 692.62 1691.94 693.593 1691.94 694.588C1691.94 695.584 1692.26 696.556 1692.83 697.259C1693.4 697.963 1694.19 698.366 1694.99 698.366Z" fill="white"/>
<path fill-rule="evenodd" clip-rule="evenodd" d="M1712.31 698.366C1713.12 698.366 1713.9 697.963 1714.47 697.259C1715.04 696.556 1715.37 695.583 1715.37 694.588C1715.37 693.593 1715.04 692.62 1714.47 691.917C1713.9 691.213 1713.12 690.811 1712.31 690.811C1711.51 690.811 1710.72 691.213 1710.15 691.917C1709.58 692.62 1709.25 693.593 1709.25 694.588C1709.25 695.583 1709.58 696.556 1710.15 697.259C1710.72 697.963 1711.51 698.366 1712.31 698.366Z" fill="white"/>
<path fill-rule="evenodd" clip-rule="evenodd" d="M1745.92 698.366H1745.94C1747.62 698.366 1748.99 696.673 1748.99 694.588C1748.99 692.503 1747.62 690.811 1745.94 690.811H1745.92C1744.24 690.811 1742.87 692.503 1742.87 694.588C1742.87 696.673 1744.24 698.366 1745.92 698.366Z" fill="white"/>
<path fill-rule="evenodd" clip-rule="evenodd" d="M1728.6 698.366H1728.62C1730.3 698.366 1731.67 696.673 1731.67 694.588C1731.67 692.503 1730.3 690.811 1728.62 690.811H1728.6C1726.92 690.811 1725.56 692.503 1725.56 694.588C1725.56 696.673 1726.92 698.366 1728.6 698.366Z" fill="white"/>
<mask id="mask4_247_1803" style="mask-type:luminance" maskUnits="userSpaceOnUse" x="1759" y="691" width="7" height="9">
<path fill-rule="evenodd" clip-rule="evenodd" d="M1759.48 691.41H1766V699.469H1759.48V691.41Z" fill="white"/>
</mask>
<g mask="url(#mask4_247_1803)">
<path fill-rule="evenodd" clip-rule="evenodd" d="M1762.74 699.469C1763.6 699.469 1764.44 699.039 1765.05 698.288C1765.65 697.538 1766 696.501 1766 695.439C1766 694.377 1765.65 693.34 1765.05 692.59C1764.44 691.839 1763.6 691.41 1762.74 691.41C1761.88 691.41 1761.04 691.839 1760.43 692.59C1759.83 693.34 1759.48 694.377 1759.48 695.439C1759.48 696.501 1759.83 697.538 1760.43 698.288C1761.04 699.039 1761.88 699.469 1762.74 699.469Z" fill="white"/>
</g>
<path fill-rule="evenodd" clip-rule="evenodd" d="M1644.06 715.99C1644.86 715.99 1645.65 715.588 1646.22 714.884C1646.79 714.181 1647.11 713.208 1647.11 712.213C1647.11 711.219 1646.79 710.245 1646.22 709.542C1645.65 708.838 1644.86 708.435 1644.06 708.435C1643.25 708.435 1642.46 708.838 1641.89 709.542C1641.33 710.245 1641 711.219 1641 712.213C1641 713.208 1641.33 714.181 1641.89 714.884C1642.46 715.588 1643.25 715.99 1644.06 715.99Z" fill="white"/>
<path fill-rule="evenodd" clip-rule="evenodd" d="M1677.67 715.99H1677.68C1679.37 715.99 1680.73 714.298 1680.73 712.213C1680.73 710.128 1679.37 708.435 1677.68 708.435H1677.67C1675.98 708.435 1674.62 710.128 1674.62 712.213C1674.62 714.298 1675.98 715.99 1677.67 715.99Z" fill="white"/>
<path fill-rule="evenodd" clip-rule="evenodd" d="M1661.37 715.99H1661.38C1663.06 715.99 1664.43 714.298 1664.43 712.213C1664.43 710.128 1663.06 708.435 1661.38 708.435H1661.37C1659.68 708.435 1658.32 710.128 1658.32 712.213C1658.32 714.298 1659.68 715.99 1661.37 715.99Z" fill="white"/>
<path fill-rule="evenodd" clip-rule="evenodd" d="M1694.99 715.99C1695.8 715.99 1696.59 715.588 1697.15 714.884C1697.72 714.181 1698.05 713.208 1698.05 712.213C1698.05 711.219 1697.72 710.245 1697.15 709.542C1696.59 708.838 1695.8 708.435 1694.99 708.435C1694.19 708.435 1693.4 708.838 1692.83 709.542C1692.26 710.245 1691.94 711.219 1691.94 712.213C1691.94 713.208 1692.26 714.181 1692.83 714.884C1693.4 715.588 1694.19 715.99 1694.99 715.99Z" fill="white"/>
<path fill-rule="evenodd" clip-rule="evenodd" d="M1712.31 715.99C1713.12 715.99 1713.9 715.588 1714.47 714.884C1715.04 714.181 1715.37 713.208 1715.37 712.213C1715.37 711.219 1715.04 710.245 1714.47 709.542C1713.9 708.838 1713.12 708.435 1712.31 708.435C1711.51 708.435 1710.72 708.838 1710.15 709.542C1709.58 710.245 1709.25 711.219 1709.25 712.213C1709.25 713.208 1709.58 714.181 1710.15 714.884C1710.72 715.588 1711.51 715.99 1712.31 715.99Z" fill="white"/>
<path fill-rule="evenodd" clip-rule="evenodd" d="M1745.92 715.99H1745.94C1747.62 715.99 1748.99 714.298 1748.99 712.213C1748.99 710.128 1747.62 708.435 1745.94 708.435H1745.92C1744.24 708.435 1742.87 710.128 1742.87 712.213C1742.87 714.298 1744.24 715.99 1745.92 715.99Z" fill="white"/>
<path fill-rule="evenodd" clip-rule="evenodd" d="M1728.6 715.99H1728.62C1730.3 715.99 1731.67 714.298 1731.67 712.213C1731.67 710.128 1730.3 708.435 1728.62 708.435H1728.6C1726.92 708.435 1725.56 710.128 1725.56 712.213C1725.56 714.298 1726.92 715.99 1728.6 715.99Z" fill="white"/>
<mask id="mask5_247_1803" style="mask-type:luminance" maskUnits="userSpaceOnUse" x="1759" y="707" width="7" height="9">
<path fill-rule="evenodd" clip-rule="evenodd" d="M1759.48 707.465H1766V715.524H1759.48V707.465Z" fill="white"/>
</mask>
<g mask="url(#mask5_247_1803)">
<path fill-rule="evenodd" clip-rule="evenodd" d="M1762.74 715.524C1763.6 715.524 1764.44 715.095 1765.05 714.343C1765.65 713.594 1766 712.556 1766 711.495C1766 710.435 1765.65 709.395 1765.05 708.646C1764.44 707.894 1763.6 707.465 1762.74 707.465C1761.88 707.465 1761.04 707.894 1760.43 708.646C1759.83 709.395 1759.48 710.435 1759.48 711.495C1759.48 712.556 1759.83 713.594 1760.43 714.343C1761.04 715.095 1761.88 715.524 1762.74 715.524Z" fill="white"/>
</g>
<path fill-rule="evenodd" clip-rule="evenodd" d="M1644.06 732.364C1644.86 732.364 1645.65 731.961 1646.22 731.259C1646.79 730.554 1647.11 729.582 1647.11 728.586C1647.11 727.593 1646.79 726.618 1646.22 725.915C1645.65 725.211 1644.86 724.809 1644.06 724.809C1643.25 724.809 1642.46 725.211 1641.89 725.915C1641.33 726.618 1641 727.593 1641 728.586C1641 729.582 1641.33 730.554 1641.89 731.259C1642.46 731.961 1643.25 732.364 1644.06 732.364Z" fill="white"/>
<path fill-rule="evenodd" clip-rule="evenodd" d="M1677.67 732.364H1677.68C1679.37 732.364 1680.73 730.671 1680.73 728.586C1680.73 726.501 1679.37 724.809 1677.68 724.809H1677.67C1675.98 724.809 1674.62 726.501 1674.62 728.586C1674.62 730.671 1675.98 732.364 1677.67 732.364Z" fill="white"/>
<path fill-rule="evenodd" clip-rule="evenodd" d="M1661.37 732.364H1661.38C1663.06 732.364 1664.43 730.671 1664.43 728.586C1664.43 726.501 1663.06 724.809 1661.38 724.809H1661.37C1659.68 724.809 1658.32 726.501 1658.32 728.586C1658.32 730.671 1659.68 732.364 1661.37 732.364Z" fill="white"/>
<path fill-rule="evenodd" clip-rule="evenodd" d="M1694.99 732.364C1695.8 732.364 1696.59 731.961 1697.15 731.259C1697.72 730.554 1698.05 729.582 1698.05 728.586C1698.05 727.593 1697.72 726.618 1697.15 725.915C1696.59 725.211 1695.8 724.809 1694.99 724.809C1694.19 724.809 1693.4 725.211 1692.83 725.915C1692.26 726.618 1691.94 727.593 1691.94 728.586C1691.94 729.582 1692.26 730.554 1692.83 731.259C1693.4 731.961 1694.19 732.364 1694.99 732.364Z" fill="white"/>
<path fill-rule="evenodd" clip-rule="evenodd" d="M1712.31 732.364C1713.12 732.364 1713.9 731.961 1714.47 731.259C1715.04 730.554 1715.37 729.582 1715.37 728.586C1715.37 727.593 1715.04 726.618 1714.47 725.915C1713.9 725.211 1713.12 724.809 1712.31 724.809C1711.51 724.809 1710.72 725.211 1710.15 725.915C1709.58 726.618 1709.25 727.593 1709.25 728.586C1709.25 729.582 1709.58 730.554 1710.15 731.259C1710.72 731.961 1711.51 732.364 1712.31 732.364Z" fill="white"/>
<path fill-rule="evenodd" clip-rule="evenodd" d="M1745.92 732.364H1745.94C1747.62 732.364 1748.99 730.671 1748.99 728.586C1748.99 726.501 1747.62 724.809 1745.94 724.809H1745.92C1744.24 724.809 1742.87 726.501 1742.87 728.586C1742.87 730.671 1744.24 732.364 1745.92 732.364Z" fill="white"/>
<path fill-rule="evenodd" clip-rule="evenodd" d="M1728.6 732.364H1728.62C1730.3 732.364 1731.67 730.671 1731.67 728.586C1731.67 726.501 1730.3 724.809 1728.62 724.809H1728.6C1726.92 724.809 1725.56 726.501 1725.56 728.586C1725.56 730.671 1726.92 732.364 1728.6 732.364Z" fill="white"/>
<mask id="mask6_247_1803" style="mask-type:luminance" maskUnits="userSpaceOnUse" x="1759" y="724" width="7" height="9">
<path fill-rule="evenodd" clip-rule="evenodd" d="M1759.48 724.258H1766V732.317H1759.48V724.258Z" fill="white"/>
</mask>
<g mask="url(#mask6_247_1803)">
<path fill-rule="evenodd" clip-rule="evenodd" d="M1762.74 732.317C1763.6 732.317 1764.44 731.888 1765.05 731.139C1765.65 730.387 1766 729.35 1766 728.288C1766 727.228 1765.65 726.189 1765.05 725.439C1764.44 724.688 1763.6 724.258 1762.74 724.258C1761.88 724.258 1761.04 724.688 1760.43 725.439C1759.83 726.189 1759.48 727.228 1759.48 728.288C1759.48 729.35 1759.83 730.387 1760.43 731.139C1761.04 731.888 1761.88 732.317 1762.74 732.317Z" fill="white"/>
</g>
<path fill-rule="evenodd" clip-rule="evenodd" d="M1644.06 748.737C1644.86 748.737 1645.65 748.335 1646.22 747.63C1646.79 746.927 1647.11 745.955 1647.11 744.959C1647.11 743.966 1646.79 742.991 1646.22 742.289C1645.65 741.584 1644.86 741.182 1644.06 741.182C1643.25 741.182 1642.46 741.584 1641.89 742.289C1641.33 742.991 1641 743.966 1641 744.959C1641 745.955 1641.33 746.927 1641.89 747.63C1642.46 748.335 1643.25 748.737 1644.06 748.737Z" fill="white"/>
<path fill-rule="evenodd" clip-rule="evenodd" d="M1677.67 748.737H1677.68C1679.37 748.737 1680.73 747.045 1680.73 744.959C1680.73 742.874 1679.37 741.182 1677.68 741.182H1677.67C1675.98 741.182 1674.62 742.874 1674.62 744.959C1674.62 747.045 1675.98 748.737 1677.67 748.737Z" fill="white"/>
<path fill-rule="evenodd" clip-rule="evenodd" d="M1661.37 748.737H1661.38C1663.06 748.737 1664.43 747.045 1664.43 744.959C1664.43 742.874 1663.06 741.182 1661.38 741.182H1661.37C1659.68 741.182 1658.32 742.874 1658.32 744.959C1658.32 747.045 1659.68 748.737 1661.37 748.737Z" fill="white"/>
<path fill-rule="evenodd" clip-rule="evenodd" d="M1694.99 748.737C1695.8 748.737 1696.59 748.335 1697.15 747.63C1697.72 746.927 1698.05 745.955 1698.05 744.959C1698.05 743.966 1697.72 742.991 1697.15 742.289C1696.59 741.584 1695.8 741.182 1694.99 741.182C1694.19 741.182 1693.4 741.584 1692.83 742.289C1692.26 742.991 1691.94 743.966 1691.94 744.959C1691.94 745.955 1692.26 746.927 1692.83 747.63C1693.4 748.335 1694.19 748.737 1694.99 748.737Z" fill="white"/>
<path fill-rule="evenodd" clip-rule="evenodd" d="M1712.31 748.737C1713.12 748.737 1713.9 748.334 1714.47 747.63C1715.04 746.927 1715.37 745.955 1715.37 744.959C1715.37 743.966 1715.04 742.991 1714.47 742.288C1713.9 741.584 1713.12 741.182 1712.31 741.182C1711.51 741.182 1710.72 741.584 1710.15 742.288C1709.58 742.991 1709.25 743.966 1709.25 744.959C1709.25 745.955 1709.58 746.927 1710.15 747.63C1710.72 748.334 1711.51 748.737 1712.31 748.737Z" fill="white"/>
<path fill-rule="evenodd" clip-rule="evenodd" d="M1745.92 748.737H1745.94C1747.62 748.737 1748.99 747.045 1748.99 744.959C1748.99 742.874 1747.62 741.182 1745.94 741.182H1745.92C1744.24 741.182 1742.87 742.874 1742.87 744.959C1742.87 747.045 1744.24 748.737 1745.92 748.737Z" fill="white"/>
<path fill-rule="evenodd" clip-rule="evenodd" d="M1728.6 748.737H1728.62C1730.3 748.737 1731.67 747.045 1731.67 744.959C1731.67 742.874 1730.3 741.182 1728.62 741.182H1728.6C1726.92 741.182 1725.56 742.874 1725.56 744.959C1725.56 747.045 1726.92 748.737 1728.6 748.737Z" fill="white"/>
<mask id="mask7_247_1803" style="mask-type:luminance" maskUnits="userSpaceOnUse" x="1759" y="741" width="7" height="9">
<path fill-rule="evenodd" clip-rule="evenodd" d="M1759.48 741.06H1766V749.118H1759.48V741.06Z" fill="white"/>
</mask>
<g mask="url(#mask7_247_1803)">
<path fill-rule="evenodd" clip-rule="evenodd" d="M1762.74 749.118C1763.6 749.118 1764.44 748.689 1765.05 747.938C1765.65 747.188 1766 746.151 1766 745.089C1766 744.029 1765.65 742.99 1765.05 742.24C1764.44 741.489 1763.6 741.06 1762.74 741.06C1761.88 741.06 1761.04 741.489 1760.43 742.24C1759.83 742.99 1759.48 744.029 1759.48 745.089C1759.48 746.151 1759.83 747.188 1760.43 747.938C1761.04 748.689 1761.88 749.118 1762.74 749.118Z" fill="white"/>
</g>
<path fill-rule="evenodd" clip-rule="evenodd" d="M1644.06 765.103C1644.86 765.103 1645.65 764.701 1646.22 763.998C1646.79 763.294 1647.11 762.321 1647.11 761.326C1647.11 760.332 1646.79 759.358 1646.22 758.655C1645.65 757.951 1644.86 757.548 1644.06 757.548C1643.25 757.548 1642.46 757.951 1641.89 758.655C1641.33 759.358 1641 760.332 1641 761.326C1641 762.321 1641.33 763.294 1641.89 763.998C1642.46 764.701 1643.25 765.103 1644.06 765.103Z" fill="white"/>
<path fill-rule="evenodd" clip-rule="evenodd" d="M1677.67 765.103H1677.68C1679.37 765.103 1680.73 763.413 1680.73 761.326C1680.73 759.241 1679.37 757.548 1677.68 757.548H1677.67C1675.98 757.548 1674.62 759.241 1674.62 761.326C1674.62 763.413 1675.98 765.103 1677.67 765.103Z" fill="white"/>
<path fill-rule="evenodd" clip-rule="evenodd" d="M1661.37 765.103H1661.38C1663.06 765.103 1664.43 763.413 1664.43 761.326C1664.43 759.241 1663.06 757.548 1661.38 757.548H1661.37C1659.68 757.548 1658.32 759.241 1658.32 761.326C1658.32 763.413 1659.68 765.103 1661.37 765.103Z" fill="white"/>
<path fill-rule="evenodd" clip-rule="evenodd" d="M1694.99 765.103C1695.8 765.103 1696.59 764.701 1697.15 763.998C1697.72 763.294 1698.05 762.321 1698.05 761.326C1698.05 760.332 1697.72 759.358 1697.15 758.655C1696.59 757.951 1695.8 757.548 1694.99 757.548C1694.19 757.548 1693.4 757.951 1692.83 758.655C1692.26 759.358 1691.94 760.332 1691.94 761.326C1691.94 762.321 1692.26 763.294 1692.83 763.998C1693.4 764.701 1694.19 765.103 1694.99 765.103Z" fill="white"/>
<path fill-rule="evenodd" clip-rule="evenodd" d="M1712.31 765.103C1713.12 765.103 1713.9 764.701 1714.47 763.998C1715.04 763.294 1715.37 762.321 1715.37 761.326C1715.37 760.332 1715.04 759.358 1714.47 758.655C1713.9 757.951 1713.12 757.548 1712.31 757.548C1711.51 757.548 1710.72 757.951 1710.15 758.655C1709.58 759.358 1709.25 760.332 1709.25 761.326C1709.25 762.321 1709.58 763.294 1710.15 763.998C1710.72 764.701 1711.51 765.103 1712.31 765.103Z" fill="white"/>
<path fill-rule="evenodd" clip-rule="evenodd" d="M1745.92 765.103H1745.94C1747.62 765.103 1748.99 763.413 1748.99 761.326C1748.99 759.241 1747.62 757.548 1745.94 757.548H1745.92C1744.24 757.548 1742.87 759.241 1742.87 761.326C1742.87 763.413 1744.24 765.103 1745.92 765.103Z" fill="white"/>
<path fill-rule="evenodd" clip-rule="evenodd" d="M1728.6 765.103H1728.62C1730.3 765.103 1731.67 763.413 1731.67 761.326C1731.67 759.241 1730.3 757.548 1728.62 757.548H1728.6C1726.92 757.548 1725.56 759.241 1725.56 761.326C1725.56 763.413 1726.92 765.103 1728.6 765.103Z" fill="white"/>
<mask id="mask8_247_1803" style="mask-type:luminance" maskUnits="userSpaceOnUse" x="1759" y="757" width="7" height="9">
<path fill-rule="evenodd" clip-rule="evenodd" d="M1759.48 757.874H1766V765.933H1759.48V757.874Z" fill="white"/>
</mask>
<g mask="url(#mask8_247_1803)">
<path fill-rule="evenodd" clip-rule="evenodd" d="M1762.74 765.933C1763.6 765.933 1764.44 765.504 1765.05 764.755C1765.65 764.003 1766 762.966 1766 761.904C1766 760.844 1765.65 759.804 1765.05 759.055C1764.44 758.304 1763.6 757.874 1762.74 757.874C1761.88 757.874 1761.04 758.304 1760.43 759.055C1759.83 759.804 1759.48 760.844 1759.48 761.904C1759.48 762.966 1759.83 764.003 1760.43 764.755C1761.04 765.504 1761.88 765.933 1762.74 765.933Z" fill="white"/>
</g>
<mask id="mask9_247_1803" style="mask-type:luminance" maskUnits="userSpaceOnUse" x="1641" y="773" width="7" height="9">
<path fill-rule="evenodd" clip-rule="evenodd" d="M1641 773.922H1647.11V781.477H1641V773.922Z" fill="white"/>
</mask>
<g mask="url(#mask9_247_1803)">
<path fill-rule="evenodd" clip-rule="evenodd" d="M1644.06 781.477C1644.86 781.477 1645.65 781.075 1646.22 780.371C1646.79 779.668 1647.11 778.693 1647.11 777.7C1647.11 776.705 1646.79 775.732 1646.22 775.027C1645.65 774.325 1644.86 773.922 1644.06 773.922C1643.25 773.922 1642.46 774.325 1641.89 775.027C1641.33 775.732 1641 776.705 1641 777.7C1641 778.693 1641.33 779.668 1641.89 780.371C1642.46 781.075 1643.25 781.477 1644.06 781.477Z" fill="white"/>
</g>
<mask id="mask10_247_1803" style="mask-type:luminance" maskUnits="userSpaceOnUse" x="1674" y="773" width="8" height="9">
<path fill-rule="evenodd" clip-rule="evenodd" d="M1674.61 773.922H1681.15V781.477H1674.61V773.922Z" fill="white"/>
</mask>
<g mask="url(#mask10_247_1803)">
<path fill-rule="evenodd" clip-rule="evenodd" d="M1677.87 781.478H1677.89C1679.69 781.478 1681.15 779.785 1681.15 777.7C1681.15 775.613 1679.69 773.922 1677.89 773.922H1677.87C1676.07 773.922 1674.61 775.613 1674.61 777.7C1674.61 779.785 1676.07 781.478 1677.87 781.478Z" fill="white"/>
</g>
<mask id="mask11_247_1803" style="mask-type:luminance" maskUnits="userSpaceOnUse" x="1657" y="773" width="8" height="9">
<path fill-rule="evenodd" clip-rule="evenodd" d="M1657.8 773.922H1664.34V781.477H1657.8V773.922Z" fill="white"/>
</mask>
<g mask="url(#mask11_247_1803)">
<path fill-rule="evenodd" clip-rule="evenodd" d="M1661.06 781.477H1661.08C1662.88 781.477 1664.34 779.785 1664.34 777.7C1664.34 775.613 1662.88 773.922 1661.08 773.922H1661.06C1659.26 773.922 1657.8 775.613 1657.8 777.7C1657.8 779.785 1659.26 781.477 1661.06 781.477Z" fill="white"/>
</g>
<mask id="mask12_247_1803" style="mask-type:luminance" maskUnits="userSpaceOnUse" x="1691" y="773" width="7" height="9">
<path fill-rule="evenodd" clip-rule="evenodd" d="M1691.43 773.922H1697.95V781.477H1691.43V773.922Z" fill="white"/>
</mask>
<g mask="url(#mask12_247_1803)">
<path fill-rule="evenodd" clip-rule="evenodd" d="M1694.69 781.478C1695.55 781.478 1696.39 781.075 1696.99 780.371C1697.6 779.668 1697.95 778.693 1697.95 777.7C1697.95 776.705 1697.6 775.732 1696.99 775.027C1696.39 774.325 1695.55 773.922 1694.69 773.922C1693.83 773.922 1692.99 774.325 1692.38 775.027C1691.78 775.732 1691.43 776.705 1691.43 777.7C1691.43 778.693 1691.78 779.668 1692.38 780.371C1692.99 781.075 1693.83 781.478 1694.69 781.478Z" fill="white"/>
</g>
<mask id="mask13_247_1803" style="mask-type:luminance" maskUnits="userSpaceOnUse" x="1708" y="773" width="8" height="9">
<path fill-rule="evenodd" clip-rule="evenodd" d="M1708.65 773.922H1715.16V781.477H1708.65V773.922Z" fill="white"/>
</mask>
<g mask="url(#mask13_247_1803)">
<path fill-rule="evenodd" clip-rule="evenodd" d="M1711.9 781.478C1712.76 781.478 1713.6 781.075 1714.21 780.371C1714.82 779.668 1715.16 778.693 1715.16 777.7C1715.16 776.705 1714.82 775.732 1714.21 775.027C1713.6 774.325 1712.76 773.922 1711.9 773.922C1711.05 773.922 1710.21 774.325 1709.6 775.027C1708.99 775.732 1708.65 776.705 1708.65 777.7C1708.65 778.693 1708.99 779.668 1709.6 780.371C1710.21 781.075 1711.05 781.478 1711.9 781.478Z" fill="white"/>
</g>
<mask id="mask14_247_1803" style="mask-type:luminance" maskUnits="userSpaceOnUse" x="1742" y="773" width="7" height="9">
<path fill-rule="evenodd" clip-rule="evenodd" d="M1742.26 773.922H1748.79V781.477H1742.26V773.922Z" fill="white"/>
</mask>
<g mask="url(#mask14_247_1803)">
<path fill-rule="evenodd" clip-rule="evenodd" d="M1745.52 781.478H1745.53C1747.33 781.478 1748.79 779.785 1748.79 777.7C1748.79 775.613 1747.33 773.922 1745.53 773.922H1745.52C1743.72 773.922 1742.26 775.613 1742.26 777.7C1742.26 779.785 1743.72 781.478 1745.52 781.478Z" fill="white"/>
</g>
<mask id="mask15_247_1803" style="mask-type:luminance" maskUnits="userSpaceOnUse" x="1725" y="773" width="7" height="9">
<path fill-rule="evenodd" clip-rule="evenodd" d="M1725.45 773.922H1731.98V781.477H1725.45V773.922Z" fill="white"/>
</mask>
<g mask="url(#mask15_247_1803)">
<path fill-rule="evenodd" clip-rule="evenodd" d="M1728.71 781.478H1728.72C1730.52 781.478 1731.98 779.785 1731.98 777.7C1731.98 775.613 1730.52 773.922 1728.72 773.922H1728.71C1726.91 773.922 1725.45 775.613 1725.45 777.7C1725.45 779.785 1726.91 781.478 1728.71 781.478Z" fill="white"/>
</g>
<mask id="mask16_247_1803" style="mask-type:luminance" maskUnits="userSpaceOnUse" x="1759" y="773" width="7" height="9">
<path fill-rule="evenodd" clip-rule="evenodd" d="M1759.48 773.922H1766V781.477H1759.48V773.922Z" fill="white"/>
</mask>
<g mask="url(#mask16_247_1803)">
<path fill-rule="evenodd" clip-rule="evenodd" d="M1762.74 781.478C1763.6 781.478 1764.44 781.075 1765.05 780.371C1765.65 779.668 1766 778.693 1766 777.7C1766 776.705 1765.65 775.732 1765.05 775.027C1764.44 774.325 1763.6 773.922 1762.74 773.922C1761.88 773.922 1761.04 774.325 1760.43 775.027C1759.83 775.732 1759.48 776.705 1759.48 777.7C1759.48 778.693 1759.83 779.668 1760.43 780.371C1761.04 781.075 1761.88 781.478 1762.74 781.478Z" fill="white"/>
</g>
<ellipse opacity="0.0361096" cx="-365.4" cy="-198.323" rx="690.6" ry="724.658" fill="white"/>
<ellipse opacity="0.0458287" cx="-377.4" cy="-223.506" rx="987" ry="1035.05" fill="white"/>
<ellipse opacity="0.050665" cx="-414.6" cy="-248.069" rx="1345.8" ry="1411.54" fill="white"/>
</g>
<path fill-rule="evenodd" clip-rule="evenodd" d="M0 862.82C0 862.82 271.667 1032.7 457.262 1018.95C642.857 1005.21 754.037 948.543 957.971 976.874C1161.9 1005.21 1753.41 933.728 1920 737V1068H0V862.82Z" fill="#FDFDFF"/>
</g>
<defs>
<linearGradient id="paint0_linear_247_1803" x1="965.709" y1="-510.402" x2="100.724" y2="1087.61" gradientUnits="userSpaceOnUse">
<stop stop-color="#6B0D0A"/>
<stop offset="0.505" stop-color="#6B0D0A"/>
<stop offset="1" stop-color="#6B0D0A"/>
</linearGradient>
</defs>
</svg>
