<svg width="16" height="16" viewBox="0 0 16 16" fill="none" xmlns="http://www.w3.org/2000/svg">
<path fill-rule="evenodd" clip-rule="evenodd" d="M7.94763 15.7763C12.2714 15.7763 15.7766 12.2712 15.7766 7.94736C15.7766 3.62355 12.2714 0.118408 7.94763 0.118408C3.62382 0.118408 0.118683 3.62355 0.118683 7.94736C0.118683 12.2712 3.62382 15.7763 7.94763 15.7763ZM10.7823 6.76725C11.0175 6.53207 11.0175 6.15076 10.7823 5.91558C10.5471 5.68039 10.1658 5.68039 9.93066 5.91558L7.14462 8.70161L5.96452 7.52151C5.72934 7.28633 5.34803 7.28633 5.11284 7.52151C4.87766 7.7567 4.87766 8.13801 5.11284 8.37319L6.71878 9.97913C6.83172 10.0921 6.9849 10.1555 7.14462 10.1555C7.30434 10.1555 7.45752 10.0921 7.57046 9.97913L10.7823 6.76725Z" fill="#64CCC5"/>
</svg>
