<svg width="80" height="81" viewBox="0 0 80 81" fill="none" xmlns="http://www.w3.org/2000/svg">
<path d="M40 80.0283C62.0914 80.0283 80 62.1197 80 40.0283C80 17.9369 62.0914 0.0283203 40 0.0283203C17.9086 0.0283203 0 17.9369 0 40.0283C0 62.1197 17.9086 80.0283 40 80.0283Z" fill="#6B0D0A"/>
<path d="M34.3724 39.0521L30.5946 34.0347L32.3384 32.0184C33.2265 30.9916 33.6706 30.4782 34.2403 30.156C34.4284 30.0496 34.6254 29.9596 34.8289 29.8868C35.4453 29.6667 36.1241 29.6667 37.4817 29.6667H40.0391M30.4698 26.1395L27.0098 29.8158C25.3327 31.5977 24.4942 32.4887 24.2866 33.5644C24.2192 33.914 24.2015 34.2714 24.2341 34.6259C24.3344 35.7169 25.0809 36.6863 26.5739 38.6251L34.6514 49.1146C36.8364 51.952 37.9289 53.3708 39.3519 53.634C39.8062 53.718 40.272 53.718 40.7262 53.634C42.1493 53.3708 43.2418 51.952 45.4268 49.1146L53.5042 38.6251C54.9972 36.6863 55.7437 35.7169 55.844 34.6259C55.8766 34.2714 55.8589 33.914 55.7915 33.5644C55.584 32.4887 54.7454 31.5977 53.0683 29.8158L49.6083 26.1395C48.7275 25.2037 48.2871 24.7358 47.7383 24.4435C47.5569 24.3469 47.3679 24.2652 47.1732 24.1993C46.5842 24 45.9416 24 44.6565 24H35.4216C34.1365 24 33.494 24 32.9049 24.1993C32.7102 24.2652 32.5212 24.3469 32.3398 24.4435C31.791 24.7358 31.3506 25.2037 30.4698 26.1395Z" stroke="#FBFBFB" stroke-width="1.5" stroke-linecap="round" stroke-linejoin="round"/>
</svg>
