<svg width="242" height="52" viewBox="0 0 242 52" fill="none" xmlns="http://www.w3.org/2000/svg">
<rect x="0.5" y="0.5" width="241" height="51" rx="22.5" fill="white"/>
<rect x="0.5" y="0.5" width="241" height="51" rx="22.5" stroke="black"/>
<circle cx="24" cy="26" r="14" fill="#6B0D0A"/>
<path d="M22 21L26.6667 25.6667L22 30.3333" stroke="#FBFBFB" stroke-width="1.55439" stroke-linecap="round" stroke-linejoin="round"/>
<path d="M57.2285 28.9062C57.2285 28.5742 57.1764 28.2812 57.0723 28.0273C56.9746 27.7669 56.7988 27.5326 56.5449 27.3242C56.2975 27.1159 55.9525 26.9173 55.5098 26.7285C55.0736 26.5397 54.5202 26.3477 53.8496 26.1523C53.1465 25.944 52.5117 25.7129 51.9453 25.459C51.3789 25.1986 50.8939 24.9023 50.4902 24.5703C50.0866 24.2383 49.7773 23.8574 49.5625 23.4277C49.3477 22.998 49.2402 22.5065 49.2402 21.9531C49.2402 21.3997 49.3542 20.8887 49.582 20.4199C49.8099 19.9512 50.1354 19.5443 50.5586 19.1992C50.9883 18.8477 51.4993 18.5742 52.0918 18.3789C52.6842 18.1836 53.3451 18.0859 54.0742 18.0859C55.1419 18.0859 56.0469 18.291 56.7891 18.7012C57.5378 19.1048 58.1074 19.6354 58.498 20.293C58.8887 20.944 59.084 21.6406 59.084 22.3828H57.209C57.209 21.849 57.0951 21.377 56.8672 20.9668C56.6393 20.5501 56.2943 20.2246 55.832 19.9902C55.3698 19.7493 54.7839 19.6289 54.0742 19.6289C53.4036 19.6289 52.8503 19.7298 52.4141 19.9316C51.9779 20.1335 51.6523 20.4069 51.4375 20.752C51.2292 21.097 51.125 21.4909 51.125 21.9336C51.125 22.2331 51.1868 22.5065 51.3105 22.7539C51.4408 22.9948 51.6393 23.2194 51.9062 23.4277C52.1797 23.6361 52.5247 23.8281 52.9414 24.0039C53.3646 24.1797 53.8691 24.349 54.4551 24.5117C55.2624 24.7396 55.959 24.9935 56.5449 25.2734C57.1309 25.5534 57.6126 25.8691 57.9902 26.2207C58.3743 26.5658 58.6576 26.9596 58.8398 27.4023C59.0286 27.8385 59.123 28.3333 59.123 28.8867C59.123 29.4661 59.0059 29.9902 58.7715 30.459C58.5371 30.9277 58.2018 31.3281 57.7656 31.6602C57.3294 31.9922 56.8053 32.2493 56.1934 32.4316C55.5879 32.6074 54.9108 32.6953 54.1621 32.6953C53.5046 32.6953 52.8568 32.6042 52.2188 32.4219C51.5872 32.2396 51.0111 31.9661 50.4902 31.6016C49.9759 31.237 49.5625 30.7878 49.25 30.2539C48.944 29.7135 48.791 29.0885 48.791 28.3789H50.666C50.666 28.8672 50.7604 29.2871 50.9492 29.6387C51.138 29.9837 51.3952 30.2702 51.7207 30.498C52.0527 30.7259 52.4271 30.8952 52.8438 31.0059C53.2669 31.11 53.7064 31.1621 54.1621 31.1621C54.8197 31.1621 55.3763 31.071 55.832 30.8887C56.2878 30.7064 56.6328 30.446 56.8672 30.1074C57.1081 29.7689 57.2285 29.3685 57.2285 28.9062ZM65.6758 21.9336V23.3203H59.9629V21.9336H65.6758ZM61.8965 19.3652H63.7031V29.8828C63.7031 30.2409 63.7585 30.5111 63.8691 30.6934C63.9798 30.8757 64.123 30.9961 64.2988 31.0547C64.4746 31.1133 64.6634 31.1426 64.8652 31.1426C65.015 31.1426 65.1712 31.1296 65.334 31.1035C65.5033 31.071 65.6302 31.0449 65.7148 31.0254L65.7246 32.5C65.5814 32.5456 65.3926 32.5879 65.1582 32.627C64.9303 32.6725 64.6536 32.6953 64.3281 32.6953C63.8854 32.6953 63.4785 32.6074 63.1074 32.4316C62.7363 32.2559 62.4401 31.9629 62.2188 31.5527C62.0039 31.1361 61.8965 30.5762 61.8965 29.873V19.3652ZM74.0254 30.6934V25.2539C74.0254 24.8372 73.9408 24.4759 73.7715 24.1699C73.6087 23.8574 73.3613 23.6165 73.0293 23.4473C72.6973 23.278 72.2871 23.1934 71.7988 23.1934C71.3431 23.1934 70.9427 23.2715 70.5977 23.4277C70.2591 23.584 69.9922 23.7891 69.7969 24.043C69.6081 24.2969 69.5137 24.5703 69.5137 24.8633H67.707C67.707 24.4857 67.8047 24.1113 68 23.7402C68.1953 23.3691 68.4753 23.0339 68.8398 22.7344C69.2109 22.4284 69.6536 22.1875 70.168 22.0117C70.6888 21.8294 71.2682 21.7383 71.9062 21.7383C72.6745 21.7383 73.3516 21.8685 73.9375 22.1289C74.5299 22.3893 74.9922 22.7832 75.3242 23.3105C75.6628 23.8314 75.832 24.4857 75.832 25.2734V30.1953C75.832 30.5469 75.8613 30.9212 75.9199 31.3184C75.985 31.7155 76.0794 32.0573 76.2031 32.3438V32.5H74.3184C74.2272 32.2917 74.1556 32.015 74.1035 31.6699C74.0514 31.3184 74.0254 30.9928 74.0254 30.6934ZM74.3379 26.0938L74.3574 27.3633H72.5312C72.0169 27.3633 71.5579 27.4056 71.1543 27.4902C70.7507 27.5684 70.4121 27.6888 70.1387 27.8516C69.8652 28.0143 69.6569 28.2194 69.5137 28.4668C69.3704 28.7077 69.2988 28.9909 69.2988 29.3164C69.2988 29.6484 69.3737 29.9512 69.5234 30.2246C69.6732 30.498 69.8978 30.7161 70.1973 30.8789C70.5033 31.0352 70.8776 31.1133 71.3203 31.1133C71.8737 31.1133 72.362 30.9961 72.7852 30.7617C73.2083 30.5273 73.5436 30.2409 73.791 29.9023C74.0449 29.5638 74.1816 29.235 74.2012 28.916L74.9727 29.7852C74.9271 30.0586 74.8034 30.3613 74.6016 30.6934C74.3997 31.0254 74.1296 31.3444 73.791 31.6504C73.459 31.9499 73.0618 32.2005 72.5996 32.4023C72.1439 32.5977 71.6296 32.6953 71.0566 32.6953C70.3405 32.6953 69.7122 32.5553 69.1719 32.2754C68.638 31.9954 68.2214 31.6211 67.9219 31.1523C67.6289 30.6771 67.4824 30.1465 67.4824 29.5605C67.4824 28.9941 67.5931 28.4961 67.8145 28.0664C68.0358 27.6302 68.3548 27.2689 68.7715 26.9824C69.1882 26.6895 69.6895 26.4681 70.2754 26.3184C70.8613 26.1686 71.5156 26.0938 72.2383 26.0938H74.3379ZM80.4805 23.5938V32.5H78.6738V21.9336H80.4316L80.4805 23.5938ZM83.7812 21.875L83.7715 23.5547C83.6217 23.5221 83.4785 23.5026 83.3418 23.4961C83.2116 23.4831 83.0618 23.4766 82.8926 23.4766C82.4759 23.4766 82.1081 23.5417 81.7891 23.6719C81.4701 23.8021 81.1999 23.9844 80.9785 24.2188C80.7572 24.4531 80.5814 24.7331 80.4512 25.0586C80.3275 25.3776 80.2461 25.7292 80.207 26.1133L79.6992 26.4062C79.6992 25.7682 79.7611 25.1693 79.8848 24.6094C80.015 24.0495 80.2135 23.5547 80.4805 23.125C80.7474 22.6888 81.0859 22.3503 81.4961 22.1094C81.9128 21.862 82.4076 21.7383 82.9805 21.7383C83.1107 21.7383 83.2604 21.7546 83.4297 21.7871C83.599 21.8132 83.7161 21.8424 83.7812 21.875ZM90.3633 21.9336V23.3203H84.6504V21.9336H90.3633ZM86.584 19.3652H88.3906V29.8828C88.3906 30.2409 88.446 30.5111 88.5566 30.6934C88.6673 30.8757 88.8105 30.9961 88.9863 31.0547C89.1621 31.1133 89.3509 31.1426 89.5527 31.1426C89.7025 31.1426 89.8587 31.1296 90.0215 31.1035C90.1908 31.071 90.3177 31.0449 90.4023 31.0254L90.4121 32.5C90.2689 32.5456 90.0801 32.5879 89.8457 32.627C89.6178 32.6725 89.3411 32.6953 89.0156 32.6953C88.5729 32.6953 88.166 32.6074 87.7949 32.4316C87.4238 32.2559 87.1276 31.9629 86.9062 31.5527C86.6914 31.1361 86.584 30.5762 86.584 29.873V19.3652ZM100.412 31.4062L103.352 21.9336H105.285L101.047 34.1309C100.949 34.3913 100.819 34.6712 100.656 34.9707C100.5 35.2767 100.298 35.5664 100.051 35.8398C99.8034 36.1133 99.5039 36.3346 99.1523 36.5039C98.8073 36.6797 98.3939 36.7676 97.9121 36.7676C97.7689 36.7676 97.5866 36.748 97.3652 36.709C97.1439 36.6699 96.9876 36.6374 96.8965 36.6113L96.8867 35.1465C96.9388 35.153 97.0202 35.1595 97.1309 35.166C97.248 35.179 97.3294 35.1855 97.375 35.1855C97.7852 35.1855 98.1335 35.1302 98.4199 35.0195C98.7064 34.9154 98.9473 34.7363 99.1426 34.4824C99.3444 34.235 99.5169 33.8932 99.6602 33.457L100.412 31.4062ZM98.2539 21.9336L100.998 30.1367L101.467 32.041L100.168 32.7051L96.2812 21.9336H98.2539ZM106.281 27.334V27.1094C106.281 26.3477 106.392 25.6413 106.613 24.9902C106.835 24.3327 107.154 23.763 107.57 23.2812C107.987 22.793 108.492 22.4154 109.084 22.1484C109.676 21.875 110.34 21.7383 111.076 21.7383C111.818 21.7383 112.486 21.875 113.078 22.1484C113.677 22.4154 114.185 22.793 114.602 23.2812C115.025 23.763 115.347 24.3327 115.568 24.9902C115.79 25.6413 115.9 26.3477 115.9 27.1094V27.334C115.9 28.0957 115.79 28.8021 115.568 29.4531C115.347 30.1042 115.025 30.6738 114.602 31.1621C114.185 31.6439 113.68 32.0215 113.088 32.2949C112.502 32.5618 111.838 32.6953 111.096 32.6953C110.354 32.6953 109.686 32.5618 109.094 32.2949C108.501 32.0215 107.993 31.6439 107.57 31.1621C107.154 30.6738 106.835 30.1042 106.613 29.4531C106.392 28.8021 106.281 28.0957 106.281 27.334ZM108.088 27.1094V27.334C108.088 27.8613 108.15 28.3594 108.273 28.8281C108.397 29.2904 108.583 29.7005 108.83 30.0586C109.084 30.4167 109.4 30.6999 109.777 30.9082C110.155 31.11 110.594 31.2109 111.096 31.2109C111.59 31.2109 112.023 31.11 112.395 30.9082C112.772 30.6999 113.085 30.4167 113.332 30.0586C113.579 29.7005 113.765 29.2904 113.889 28.8281C114.019 28.3594 114.084 27.8613 114.084 27.334V27.1094C114.084 26.5885 114.019 26.097 113.889 25.6348C113.765 25.166 113.576 24.7526 113.322 24.3945C113.075 24.0299 112.762 23.7435 112.385 23.5352C112.014 23.3268 111.577 23.2227 111.076 23.2227C110.581 23.2227 110.145 23.3268 109.768 23.5352C109.396 23.7435 109.084 24.0299 108.83 24.3945C108.583 24.7526 108.397 25.166 108.273 25.6348C108.15 26.097 108.088 26.5885 108.088 27.1094ZM124.631 30.0586V21.9336H126.447V32.5H124.719L124.631 30.0586ZM124.973 27.832L125.725 27.8125C125.725 28.5156 125.65 29.1667 125.5 29.7656C125.357 30.3581 125.122 30.8724 124.797 31.3086C124.471 31.7448 124.045 32.0866 123.518 32.334C122.99 32.5749 122.349 32.6953 121.594 32.6953C121.079 32.6953 120.607 32.6204 120.178 32.4707C119.755 32.321 119.39 32.0898 119.084 31.7773C118.778 31.4648 118.54 31.0579 118.371 30.5566C118.208 30.0553 118.127 29.4531 118.127 28.75V21.9336H119.934V28.7695C119.934 29.2448 119.986 29.6387 120.09 29.9512C120.201 30.2572 120.347 30.5013 120.529 30.6836C120.718 30.8594 120.926 30.9831 121.154 31.0547C121.389 31.1263 121.63 31.1621 121.877 31.1621C122.645 31.1621 123.254 31.0156 123.703 30.7227C124.152 30.4232 124.475 30.0228 124.67 29.5215C124.872 29.0137 124.973 28.4505 124.973 27.832ZM131.008 23.5938V32.5H129.201V21.9336H130.959L131.008 23.5938ZM134.309 21.875L134.299 23.5547C134.149 23.5221 134.006 23.5026 133.869 23.4961C133.739 23.4831 133.589 23.4766 133.42 23.4766C133.003 23.4766 132.635 23.5417 132.316 23.6719C131.997 23.8021 131.727 23.9844 131.506 24.2188C131.285 24.4531 131.109 24.7331 130.979 25.0586C130.855 25.3776 130.773 25.7292 130.734 26.1133L130.227 26.4062C130.227 25.7682 130.288 25.1693 130.412 24.6094C130.542 24.0495 130.741 23.5547 131.008 23.125C131.275 22.6888 131.613 22.3503 132.023 22.1094C132.44 21.862 132.935 21.7383 133.508 21.7383C133.638 21.7383 133.788 21.7546 133.957 21.7871C134.126 21.8132 134.243 21.8424 134.309 21.875ZM143.098 18.2812V32.5H141.213V18.2812H143.098ZM149.055 24.6777V26.2207H142.688V24.6777H149.055ZM150.021 18.2812V19.8242H142.688V18.2812H150.021ZM153.547 23.5938V32.5H151.74V21.9336H153.498L153.547 23.5938ZM156.848 21.875L156.838 23.5547C156.688 23.5221 156.545 23.5026 156.408 23.4961C156.278 23.4831 156.128 23.4766 155.959 23.4766C155.542 23.4766 155.174 23.5417 154.855 23.6719C154.536 23.8021 154.266 23.9844 154.045 24.2188C153.824 24.4531 153.648 24.7331 153.518 25.0586C153.394 25.3776 153.312 25.7292 153.273 26.1133L152.766 26.4062C152.766 25.7682 152.827 25.1693 152.951 24.6094C153.081 24.0495 153.28 23.5547 153.547 23.125C153.814 22.6888 154.152 22.3503 154.562 22.1094C154.979 21.862 155.474 21.7383 156.047 21.7383C156.177 21.7383 156.327 21.7546 156.496 21.7871C156.665 21.8132 156.783 21.8424 156.848 21.875ZM162.707 32.6953C161.971 32.6953 161.304 32.5716 160.705 32.3242C160.113 32.0703 159.602 31.7155 159.172 31.2598C158.749 30.804 158.423 30.2637 158.195 29.6387C157.967 29.0137 157.854 28.3301 157.854 27.5879V27.1777C157.854 26.3184 157.98 25.5534 158.234 24.8828C158.488 24.2057 158.833 23.6328 159.27 23.1641C159.706 22.6953 160.201 22.3405 160.754 22.0996C161.307 21.8587 161.88 21.7383 162.473 21.7383C163.228 21.7383 163.879 21.8685 164.426 22.1289C164.979 22.3893 165.432 22.7539 165.783 23.2227C166.135 23.6849 166.395 24.2318 166.564 24.8633C166.734 25.4883 166.818 26.1719 166.818 26.9141V27.7246H158.928V26.25H165.012V26.1133C164.986 25.6445 164.888 25.1888 164.719 24.7461C164.556 24.3034 164.296 23.9388 163.938 23.6523C163.579 23.3659 163.091 23.2227 162.473 23.2227C162.062 23.2227 161.685 23.3105 161.34 23.4863C160.995 23.6556 160.699 23.9095 160.451 24.248C160.204 24.5866 160.012 25 159.875 25.4883C159.738 25.9766 159.67 26.5397 159.67 27.1777V27.5879C159.67 28.0892 159.738 28.5612 159.875 29.0039C160.018 29.4401 160.223 29.8242 160.49 30.1562C160.764 30.4883 161.092 30.7487 161.477 30.9375C161.867 31.1263 162.31 31.2207 162.805 31.2207C163.443 31.2207 163.983 31.0905 164.426 30.8301C164.868 30.5697 165.256 30.2214 165.588 29.7852L166.682 30.6543C166.454 30.9993 166.164 31.3281 165.812 31.6406C165.461 31.9531 165.028 32.207 164.514 32.4023C164.006 32.5977 163.404 32.6953 162.707 32.6953ZM173.312 32.6953C172.577 32.6953 171.91 32.5716 171.311 32.3242C170.718 32.0703 170.207 31.7155 169.777 31.2598C169.354 30.804 169.029 30.2637 168.801 29.6387C168.573 29.0137 168.459 28.3301 168.459 27.5879V27.1777C168.459 26.3184 168.586 25.5534 168.84 24.8828C169.094 24.2057 169.439 23.6328 169.875 23.1641C170.311 22.6953 170.806 22.3405 171.359 22.0996C171.913 21.8587 172.486 21.7383 173.078 21.7383C173.833 21.7383 174.484 21.8685 175.031 22.1289C175.585 22.3893 176.037 22.7539 176.389 23.2227C176.74 23.6849 177.001 24.2318 177.17 24.8633C177.339 25.4883 177.424 26.1719 177.424 26.9141V27.7246H169.533V26.25H175.617V26.1133C175.591 25.6445 175.493 25.1888 175.324 24.7461C175.161 24.3034 174.901 23.9388 174.543 23.6523C174.185 23.3659 173.697 23.2227 173.078 23.2227C172.668 23.2227 172.29 23.3105 171.945 23.4863C171.6 23.6556 171.304 23.9095 171.057 24.248C170.809 24.5866 170.617 25 170.48 25.4883C170.344 25.9766 170.275 26.5397 170.275 27.1777V27.5879C170.275 28.0892 170.344 28.5612 170.48 29.0039C170.624 29.4401 170.829 29.8242 171.096 30.1562C171.369 30.4883 171.698 30.7487 172.082 30.9375C172.473 31.1263 172.915 31.2207 173.41 31.2207C174.048 31.2207 174.589 31.0905 175.031 30.8301C175.474 30.5697 175.861 30.2214 176.193 29.7852L177.287 30.6543C177.059 30.9993 176.77 31.3281 176.418 31.6406C176.066 31.9531 175.633 32.207 175.119 32.4023C174.611 32.5977 174.009 32.6953 173.312 32.6953ZM189.631 18.2812V32.5H187.775V18.2812H189.631ZM194.201 18.2812V19.8242H183.215V18.2812H194.201ZM197.102 23.5938V32.5H195.295V21.9336H197.053L197.102 23.5938ZM200.402 21.875L200.393 23.5547C200.243 23.5221 200.1 23.5026 199.963 23.4961C199.833 23.4831 199.683 23.4766 199.514 23.4766C199.097 23.4766 198.729 23.5417 198.41 23.6719C198.091 23.8021 197.821 23.9844 197.6 24.2188C197.378 24.4531 197.202 24.7331 197.072 25.0586C196.949 25.3776 196.867 25.7292 196.828 26.1133L196.32 26.4062C196.32 25.7682 196.382 25.1693 196.506 24.6094C196.636 24.0495 196.835 23.5547 197.102 23.125C197.368 22.6888 197.707 22.3503 198.117 22.1094C198.534 21.862 199.029 21.7383 199.602 21.7383C199.732 21.7383 199.882 21.7546 200.051 21.7871C200.22 21.8132 200.337 21.8424 200.402 21.875ZM204.035 21.9336V32.5H202.219V21.9336H204.035ZM202.082 19.1309C202.082 18.8379 202.17 18.5905 202.346 18.3887C202.528 18.1868 202.795 18.0859 203.146 18.0859C203.492 18.0859 203.755 18.1868 203.938 18.3887C204.126 18.5905 204.221 18.8379 204.221 19.1309C204.221 19.4108 204.126 19.6517 203.938 19.8535C203.755 20.0488 203.492 20.1465 203.146 20.1465C202.795 20.1465 202.528 20.0488 202.346 19.8535C202.17 19.6517 202.082 19.4108 202.082 19.1309ZM213.166 30.6934V25.2539C213.166 24.8372 213.081 24.4759 212.912 24.1699C212.749 23.8574 212.502 23.6165 212.17 23.4473C211.838 23.278 211.428 23.1934 210.939 23.1934C210.484 23.1934 210.083 23.2715 209.738 23.4277C209.4 23.584 209.133 23.7891 208.938 24.043C208.749 24.2969 208.654 24.5703 208.654 24.8633H206.848C206.848 24.4857 206.945 24.1113 207.141 23.7402C207.336 23.3691 207.616 23.0339 207.98 22.7344C208.352 22.4284 208.794 22.1875 209.309 22.0117C209.829 21.8294 210.409 21.7383 211.047 21.7383C211.815 21.7383 212.492 21.8685 213.078 22.1289C213.671 22.3893 214.133 22.7832 214.465 23.3105C214.803 23.8314 214.973 24.4857 214.973 25.2734V30.1953C214.973 30.5469 215.002 30.9212 215.061 31.3184C215.126 31.7155 215.22 32.0573 215.344 32.3438V32.5H213.459C213.368 32.2917 213.296 32.015 213.244 31.6699C213.192 31.3184 213.166 30.9928 213.166 30.6934ZM213.479 26.0938L213.498 27.3633H211.672C211.158 27.3633 210.699 27.4056 210.295 27.4902C209.891 27.5684 209.553 27.6888 209.279 27.8516C209.006 28.0143 208.798 28.2194 208.654 28.4668C208.511 28.7077 208.439 28.9909 208.439 29.3164C208.439 29.6484 208.514 29.9512 208.664 30.2246C208.814 30.498 209.038 30.7161 209.338 30.8789C209.644 31.0352 210.018 31.1133 210.461 31.1133C211.014 31.1133 211.503 30.9961 211.926 30.7617C212.349 30.5273 212.684 30.2409 212.932 29.9023C213.186 29.5638 213.322 29.235 213.342 28.916L214.113 29.7852C214.068 30.0586 213.944 30.3613 213.742 30.6934C213.54 31.0254 213.27 31.3444 212.932 31.6504C212.6 31.9499 212.202 32.2005 211.74 32.4023C211.285 32.5977 210.77 32.6953 210.197 32.6953C209.481 32.6953 208.853 32.5553 208.312 32.2754C207.779 31.9954 207.362 31.6211 207.062 31.1523C206.77 30.6771 206.623 30.1465 206.623 29.5605C206.623 28.9941 206.734 28.4961 206.955 28.0664C207.176 27.6302 207.495 27.2689 207.912 26.9824C208.329 26.6895 208.83 26.4681 209.416 26.3184C210.002 26.1686 210.656 26.0938 211.379 26.0938H213.479ZM219.777 17.5V32.5H217.961V17.5H219.777Z" fill="#0C0C0C" fill-opacity="0.9"/>
</svg>
