<svg width="81" height="80" viewBox="0 0 81 80" fill="none" xmlns="http://www.w3.org/2000/svg">
<g clip-path="url(#clip0_2117_903)">
<path fill-rule="evenodd" clip-rule="evenodd" d="M79.8394 39.9999C79.8394 17.9086 61.9309 0 39.8395 0C17.7482 0 -0.1604 17.9085 -0.1604 39.9999C-0.1604 62.0913 17.7481 79.9999 39.8395 79.9999C61.9309 79.9999 79.8394 62.0913 79.8394 39.9999Z" fill="#6B0D0A"/>
<path d="M39.2316 28.4324L32.4689 30.2121C31.6738 30.4213 31.2762 30.5259 30.9742 30.77C30.875 30.8503 30.7845 30.9407 30.7043 31.04C30.4602 31.342 30.3556 31.7395 30.1463 32.5347L26.3282 47.0436C25.3526 50.7507 24.8648 52.6043 25.6306 53.7812C25.8718 54.1518 26.1878 54.4679 26.5585 54.709C27.7354 55.4748 29.5889 54.987 33.2961 54.0115L47.805 50.1933C48.6001 49.9841 48.9977 49.8795 49.2997 49.6354C49.3989 49.5552 49.4894 49.4647 49.5696 49.3654C49.8137 49.0634 49.9183 48.6659 50.1276 47.8707L51.9072 41.1081M39.2316 28.4324L51.9072 41.1081M39.2316 28.4324L42.3592 25.3048C43.3195 24.3445 43.7996 23.8644 44.3807 23.7724C44.5684 23.7426 44.7596 23.7426 44.9473 23.7724C45.5284 23.8644 46.0085 24.3445 46.9688 25.3048L55.0349 33.3709C55.9951 34.3311 56.4753 34.8113 56.5673 35.3924C56.597 35.5801 56.597 35.7713 56.5673 35.9589C56.4753 36.5401 55.9951 37.0202 55.0349 37.9805L51.9072 41.1081" stroke="#FBFBFB" stroke-width="1.7633" stroke-linecap="round" stroke-linejoin="round"/>
<path d="M36.7415 43.6065C35.4289 42.2939 35.4289 40.1657 36.7415 38.8531C38.0541 37.5405 40.1823 37.5405 41.4949 38.8531C42.8075 40.1657 42.8075 42.2939 41.4949 43.6065C40.1823 44.9191 38.0541 44.9191 36.7415 43.6065ZM36.7415 43.6065L31.9882 48.3599" stroke="#FBFBFB" stroke-width="2.71622" stroke-linecap="round" stroke-linejoin="round"/>
</g>
<defs>
<clipPath id="clip0_2117_903">
<rect width="80" height="80" fill="white" transform="translate(0.320312)"/>
</clipPath>
</defs>
</svg>
