<svg width="242" height="52" viewBox="0 0 242 52" fill="none" xmlns="http://www.w3.org/2000/svg">
<rect x="0.5" y="0.5" width="177" height="51" rx="22.5" fill="white"/>
<rect x="0.5" y="0.5" width="177" height="51" rx="22.5" stroke="black"/>
<circle cx="24" cy="26" r="14" fill="#6B0D0A"/>
<path d="M22 21L26.6667 25.6667L22 30.3333" stroke="#FBFBFB" stroke-width="1.55439" stroke-linecap="round" stroke-linejoin="round"/>
<path d="M49.6504 18.2812H54.3574C55.4251 18.2812 56.3268 18.444 57.0625 18.7695C57.8047 19.0951 58.3678 19.5768 58.752 20.2148C59.1426 20.8464 59.3379 21.6243 59.3379 22.5488C59.3379 23.1999 59.2044 23.7956 58.9375 24.3359C58.6771 24.8698 58.2995 25.3255 57.8047 25.7031C57.3164 26.0742 56.7305 26.3509 56.0469 26.5332L55.5195 26.7383H51.0957L51.0762 25.2051H54.416C55.0931 25.2051 55.6562 25.0879 56.1055 24.8535C56.5547 24.6126 56.8932 24.2904 57.1211 23.8867C57.349 23.4831 57.4629 23.0371 57.4629 22.5488C57.4629 22.002 57.3555 21.5234 57.1406 21.1133C56.9258 20.7031 56.5872 20.3874 56.125 20.166C55.6693 19.9382 55.0801 19.8242 54.3574 19.8242H51.5352V32.5H49.6504V18.2812ZM57.9609 32.5L54.5039 26.0547L56.4668 26.0449L59.9727 32.3828V32.5H57.9609ZM71.0078 30.9668V32.5H63.4785V30.9668H71.0078ZM63.8594 18.2812V32.5H61.9746V18.2812H63.8594ZM70.0117 24.3945V25.9277H63.4785V24.3945H70.0117ZM70.9102 18.2812V19.8242H63.4785V18.2812H70.9102ZM78.6055 19.541L73.8984 32.5H71.9746L77.3945 18.2812H78.6348L78.6055 19.541ZM82.5508 32.5L77.834 19.541L77.8047 18.2812H79.0449L84.4844 32.5H82.5508ZM82.3066 27.2363V28.7793H74.3184V27.2363H82.3066ZM90.2363 32.5H87.2676L87.2871 30.9668H90.2363C91.252 30.9668 92.0983 30.7552 92.7754 30.332C93.4525 29.9023 93.9603 29.3034 94.2988 28.5352C94.6439 27.7604 94.8164 26.8555 94.8164 25.8203V24.9512C94.8164 24.1374 94.7188 23.4147 94.5234 22.7832C94.3281 22.1452 94.0417 21.6081 93.6641 21.1719C93.2865 20.7292 92.8242 20.3939 92.2773 20.166C91.737 19.9382 91.1152 19.8242 90.4121 19.8242H87.209V18.2812H90.4121C91.3431 18.2812 92.1927 18.4375 92.9609 18.75C93.7292 19.056 94.39 19.502 94.9434 20.0879C95.5033 20.6673 95.9329 21.3704 96.2324 22.1973C96.5319 23.0176 96.6816 23.9421 96.6816 24.9707V25.8203C96.6816 26.849 96.5319 27.7767 96.2324 28.6035C95.9329 29.4238 95.5 30.1237 94.9336 30.7031C94.3737 31.2826 93.6966 31.7285 92.9023 32.041C92.1146 32.347 91.2259 32.5 90.2363 32.5ZM88.2734 18.2812V32.5H86.3887V18.2812H88.2734ZM105.07 18.2812H106.896L111.555 29.873L116.203 18.2812H118.039L112.258 32.5H110.832L105.07 18.2812ZM104.475 18.2812H106.086L106.35 26.9531V32.5H104.475V18.2812ZM117.014 18.2812H118.625V32.5H116.75V26.9531L117.014 18.2812ZM132.883 24.9414V25.8398C132.883 26.9076 132.749 27.8646 132.482 28.7109C132.215 29.5573 131.831 30.2767 131.33 30.8691C130.829 31.4616 130.227 31.9141 129.523 32.2266C128.827 32.5391 128.046 32.6953 127.18 32.6953C126.34 32.6953 125.568 32.5391 124.865 32.2266C124.169 31.9141 123.563 31.4616 123.049 30.8691C122.541 30.2767 122.147 29.5573 121.867 28.7109C121.587 27.8646 121.447 26.9076 121.447 25.8398V24.9414C121.447 23.8737 121.584 22.9199 121.857 22.0801C122.137 21.2337 122.531 20.5143 123.039 19.9219C123.547 19.3229 124.149 18.8672 124.846 18.5547C125.549 18.2422 126.32 18.0859 127.16 18.0859C128.026 18.0859 128.807 18.2422 129.504 18.5547C130.207 18.8672 130.809 19.3229 131.311 19.9219C131.818 20.5143 132.206 21.2337 132.473 22.0801C132.746 22.9199 132.883 23.8737 132.883 24.9414ZM131.018 25.8398V24.9219C131.018 24.0755 130.93 23.3268 130.754 22.6758C130.585 22.0247 130.334 21.4779 130.002 21.0352C129.67 20.5924 129.263 20.2572 128.781 20.0293C128.306 19.8014 127.766 19.6875 127.16 19.6875C126.574 19.6875 126.044 19.8014 125.568 20.0293C125.1 20.2572 124.696 20.5924 124.357 21.0352C124.025 21.4779 123.768 22.0247 123.586 22.6758C123.404 23.3268 123.312 24.0755 123.312 24.9219V25.8398C123.312 26.6927 123.404 27.4479 123.586 28.1055C123.768 28.7565 124.029 29.3066 124.367 29.7559C124.712 30.1986 125.119 30.5339 125.588 30.7617C126.063 30.9896 126.594 31.1035 127.18 31.1035C127.792 31.1035 128.335 30.9896 128.811 30.7617C129.286 30.5339 129.686 30.1986 130.012 29.7559C130.344 29.3066 130.594 28.7565 130.764 28.1055C130.933 27.4479 131.018 26.6927 131.018 25.8398ZM135.705 18.2812H140.412C141.48 18.2812 142.382 18.444 143.117 18.7695C143.859 19.0951 144.423 19.5768 144.807 20.2148C145.197 20.8464 145.393 21.6243 145.393 22.5488C145.393 23.1999 145.259 23.7956 144.992 24.3359C144.732 24.8698 144.354 25.3255 143.859 25.7031C143.371 26.0742 142.785 26.3509 142.102 26.5332L141.574 26.7383H137.15L137.131 25.2051H140.471C141.148 25.2051 141.711 25.0879 142.16 24.8535C142.609 24.6126 142.948 24.2904 143.176 23.8867C143.404 23.4831 143.518 23.0371 143.518 22.5488C143.518 22.002 143.41 21.5234 143.195 21.1133C142.98 20.7031 142.642 20.3874 142.18 20.166C141.724 19.9382 141.135 19.8242 140.412 19.8242H137.59V32.5H135.705V18.2812ZM144.016 32.5L140.559 26.0547L142.521 26.0449L146.027 32.3828V32.5H144.016ZM157.062 30.9668V32.5H149.533V30.9668H157.062ZM149.914 18.2812V32.5H148.029V18.2812H149.914ZM156.066 24.3945V25.9277H149.533V24.3945H156.066ZM156.965 18.2812V19.8242H149.533V18.2812H156.965Z" fill="#0C0C0C" fill-opacity="0.9"/>
</svg>
