<svg width="81" height="81" viewBox="0 0 81 81" fill="none" xmlns="http://www.w3.org/2000/svg">
<path d="M40.4946 80.0566C62.5938 80.0566 80.5087 62.1416 80.5087 40.0424C80.5087 17.9433 62.5938 0.0283203 40.4946 0.0283203C18.3954 0.0283203 0.480469 17.9433 0.480469 40.0424C0.480469 62.1416 18.3954 80.0566 40.4946 80.0566Z" fill="#6B0D0A"/>
<path d="M50.8296 35.0179C50.8296 36.826 49.3163 38.2918 47.4496 38.2918C45.5829 38.2918 44.0696 36.826 44.0696 35.0179C44.0696 33.2098 45.5829 31.744 47.4496 31.744C49.3163 31.744 50.8296 33.2098 50.8296 35.0179Z" stroke="#FBFBFB" stroke-width="1.65"/>
<path d="M38.2753 35.0179C38.2753 36.826 36.7621 38.2918 34.8954 38.2918C33.0286 38.2918 31.5154 36.826 31.5154 35.0179C31.5154 33.2098 33.0286 31.744 34.8954 31.744C36.7621 31.744 38.2753 33.2098 38.2753 35.0179Z" stroke="#FBFBFB" stroke-width="1.65"/>
<path d="M39.241 46.2428C39.241 48.0509 37.7278 49.5167 35.8611 49.5167C33.9943 49.5167 32.4811 48.0509 32.4811 46.2428C32.4811 44.4347 33.9943 42.9689 35.8611 42.9689C37.7278 42.9689 39.241 44.4347 39.241 46.2428Z" stroke="#FBFBFB" stroke-width="1.65"/>
<path d="M57.4771 36.2085C57.2766 27.8933 45.1865 22.688 36.3813 24.2886C27.5761 25.8893 23.3163 34.5656 24.7554 42.9689C26.1546 51.1391 35.3782 57 41.1724 57C46.9667 57 51.7953 54.1938 47.7213 50.8498C46.588 49.9716 45.6649 48.8655 45.0157 47.608C44.042 45.7217 45.8039 43.0288 47.9727 43.2139C52.3745 43.5896 57.6334 42.6927 57.4771 36.2085Z" stroke="#FBFBFB" stroke-width="1.65"/>
</svg>
